<?xml version="1.0" encoding="UTF-8"?>
<!DOCTYPE svg PUBLIC "-//W3C//DTD SVG 1.1//EN" "http://www.w3.org/Graphics/SVG/1.1/DTD/svg11.dtd">
<svg xmlns="http://www.w3.org/2000/svg" version="1.1" width="3264px" height="3264px" style="shape-rendering:geometricPrecision; text-rendering:geometricPrecision; image-rendering:optimizeQuality; fill-rule:evenodd; clip-rule:evenodd" xmlns:xlink="http://www.w3.org/1999/xlink">
<g><path style="opacity:0.971" fill="#c4c4c4" d="M 1342.5,1668.5 C 1342.34,1666.8 1342.51,1665.13 1343,1663.5C 1349.28,1651.43 1354.78,1639.09 1359.5,1626.5C 1360.17,1625.83 1360.83,1625.17 1361.5,1624.5C 1361.39,1626.38 1361.89,1626.71 1363,1625.5C 1367.11,1615.47 1371.78,1605.8 1377,1596.5C 1378,1588.79 1380.67,1581.79 1385,1575.5C 1389.73,1558.55 1395.07,1541.88 1401,1525.5C 1403.84,1513.13 1406.84,1500.8 1410,1488.5C 1414.87,1461.8 1419.03,1435.14 1422.5,1408.5C 1423.32,1405.69 1423.82,1402.69 1424,1399.5C 1425.44,1370.85 1425.77,1342.18 1425,1313.5C 1424.96,1305.92 1424.13,1298.59 1422.5,1291.5C 1420.33,1269.8 1417.83,1248.14 1415,1226.5C 1372.9,1019.49 1260.4,863.993 1077.5,760C 1045.23,743.325 1012.23,728.659 978.5,716C 955.038,708.705 931.371,702.039 907.5,696C 889.559,692.084 871.559,688.751 853.5,686C 799.431,678.912 745.097,677.579 690.5,682C 492.827,706.084 334.66,797.918 216,957.5C 207.144,970.566 198.31,983.566 189.5,996.5C 217.747,937.617 254.58,884.951 300,838.5C 302.333,835.5 304.667,832.5 307,829.5C 420.44,716.204 557.273,650.037 717.5,631C 864.73,617.667 1001.73,647.834 1128.5,721.5C 1269.69,807.742 1367.19,929.409 1421,1086.5C 1456.93,1199.56 1463.6,1314.56 1441,1431.5C 1431.59,1473.46 1418.92,1514.46 1403,1554.5C 1385.74,1594.18 1365.57,1632.18 1342.5,1668.5 Z"/></g>
<g><path style="opacity:0.977" fill="#c4c4c4" d="M 3088.5,1033.5 C 3001.21,881.737 2874.55,777.57 2708.5,721C 2684.41,713.913 2660.08,707.579 2635.5,702C 2603.99,696.628 2572.33,692.628 2540.5,690C 2502.43,688.695 2464.43,689.695 2426.5,693C 2242.06,717.461 2091.9,802.295 1976,947.5C 1938.87,996.688 1908.37,1049.85 1884.5,1107C 1882.89,1115.84 1879.72,1124.01 1875,1131.5C 1872.4,1141.36 1869.24,1151.03 1865.5,1160.5C 1864.03,1172.03 1860.86,1183.03 1856,1193.5C 1850.17,1224.8 1844.84,1256.14 1840,1287.5C 1836.68,1332.5 1836.68,1377.5 1840,1422.5C 1846.09,1476.62 1858.26,1529.12 1876.5,1580C 1877.59,1584.19 1878.76,1588.36 1880,1592.5C 1880.67,1593.17 1881.33,1593.83 1882,1594.5C 1883.07,1599.21 1884.24,1603.87 1885.5,1608.5C 1884.37,1607.53 1883.37,1606.36 1882.5,1605C 1798.43,1436.14 1785.43,1261.64 1843.5,1081.5C 1897.45,930.272 1992.12,812.105 2127.5,727C 2275.36,639.943 2434.36,611.61 2604.5,642C 2797.15,683.693 2945.15,787.526 3048.5,953.5C 3060.31,974.723 3071.65,996.223 3082.5,1018C 3084.67,1023.1 3086.67,1028.26 3088.5,1033.5 Z"/></g>
<g><path style="opacity:0.997" fill="#fefefe" d="M 1422.5,1291.5 C 1425.01,1330.49 1425.01,1369.49 1422.5,1408.5C 1419.03,1435.14 1414.87,1461.8 1410,1488.5C 1406.84,1500.8 1403.84,1513.13 1401,1525.5C 1395.07,1541.88 1389.73,1558.55 1385,1575.5C 1380.67,1581.79 1378,1588.79 1377,1596.5C 1371.78,1605.8 1367.11,1615.47 1363,1625.5C 1361.89,1626.71 1361.39,1626.38 1361.5,1624.5C 1361.99,1622.19 1362.33,1619.86 1362.5,1617.5C 1362.59,1615.21 1363.26,1613.21 1364.5,1611.5C 1366.48,1608.2 1367.48,1604.53 1367.5,1600.5C 1368.7,1596.56 1369.7,1592.56 1370.5,1588.5C 1372.12,1585.83 1372.78,1582.83 1372.5,1579.5C 1374.22,1576.16 1374.88,1572.49 1374.5,1568.5C 1375.97,1564.08 1376.64,1559.41 1376.5,1554.5C 1377.48,1551.04 1377.81,1547.37 1377.5,1543.5C 1379.04,1533.21 1379.7,1522.71 1379.5,1512C 1379.7,1501.29 1379.04,1490.79 1377.5,1480.5C 1377.81,1477.29 1377.48,1474.29 1376.5,1471.5C 1376.8,1467.21 1376.14,1463.21 1374.5,1459.5C 1374.5,1458.83 1374.5,1458.17 1374.5,1457.5C 1374.78,1454.17 1374.12,1451.17 1372.5,1448.5C 1372.5,1448.17 1372.5,1447.83 1372.5,1447.5C 1372.71,1444.5 1372.04,1441.84 1370.5,1439.5C 1370.67,1437.38 1370.34,1435.38 1369.5,1433.5C 1369.74,1431.1 1369.07,1429.1 1367.5,1427.5C 1367.48,1423.47 1366.48,1419.8 1364.5,1416.5C 1364.12,1414.3 1363.46,1412.3 1362.5,1410.5C 1362.07,1407.22 1361.07,1404.22 1359.5,1401.5C 1336.62,1339.12 1298.62,1287.95 1245.5,1248C 1154.19,1184.1 1054.86,1167.43 947.5,1198C 837.897,1236.02 765.064,1310.19 729,1420.5C 700.11,1531.71 720.444,1632.71 790,1723.5C 850.849,1795.68 928.349,1836.34 1022.5,1845.5C 1038.66,1846.66 1054.99,1846.83 1071.5,1846C 1073.38,1845.8 1075.05,1845.3 1076.5,1844.5C 1077.17,1844.5 1077.83,1844.5 1078.5,1844.5C 1090.93,1843.87 1103.26,1842.37 1115.5,1840C 1116.06,1839.62 1116.39,1839.12 1116.5,1838.5C 1117.17,1838.5 1117.83,1838.5 1118.5,1838.5C 1122.8,1838.25 1126.8,1837.25 1130.5,1835.5C 1130.83,1835.5 1131.17,1835.5 1131.5,1835.5C 1136.16,1834.94 1140.5,1833.61 1144.5,1831.5C 1145.39,1830.89 1146.39,1830.56 1147.5,1830.5C 1154.96,1828.85 1162.29,1826.68 1169.5,1824C 1170.94,1823.62 1171.94,1822.79 1172.5,1821.5C 1232.43,1796.23 1281.43,1757.23 1319.5,1704.5C 1320.5,1703.83 1321.5,1703.17 1322.5,1702.5C 1321.23,1705.61 1319.73,1708.61 1318,1711.5C 1219.86,1857.04 1084.86,1951.71 913,1995.5C 736.279,2034.74 570.113,2009.07 414.5,1918.5C 248.513,1815.11 144.679,1667.11 103,1474.5C 83.2135,1366.82 88.2135,1260.49 118,1155.5C 122.787,1142.7 127.12,1129.7 131,1116.5C 138.951,1097.19 146.951,1077.86 155,1058.5C 165.852,1037.42 177.352,1016.75 189.5,996.5C 198.31,983.566 207.144,970.566 216,957.5C 334.66,797.918 492.827,706.084 690.5,682C 745.097,677.579 799.431,678.912 853.5,686C 871.559,688.751 889.559,692.084 907.5,696C 931.371,702.039 955.038,708.705 978.5,716C 1012.23,728.659 1045.23,743.325 1077.5,760C 1260.4,863.993 1372.9,1019.49 1415,1226.5C 1417.83,1248.14 1420.33,1269.8 1422.5,1291.5 Z"/></g>
<g><path style="opacity:0.997" fill="#fefefe" d="M 3088.5,1033.5 C 3165.96,1176.96 3189.12,1329.29 3158,1490.5C 3123.24,1646.72 3045.07,1775.22 2923.5,1876C 2768.29,1996.51 2592.29,2042.84 2395.5,2015C 2215.25,1982.38 2071.09,1893.55 1963,1748.5C 1932.34,1704.73 1906.51,1658.06 1885.5,1608.5C 1884.24,1603.87 1883.07,1599.21 1882,1594.5C 1881.33,1593.83 1880.67,1593.17 1880,1592.5C 1878.76,1588.36 1877.59,1584.19 1876.5,1580C 1858.26,1529.12 1846.09,1476.62 1840,1422.5C 1836.68,1377.5 1836.68,1332.5 1840,1287.5C 1844.84,1256.14 1850.17,1224.8 1856,1193.5C 1860.86,1183.03 1864.03,1172.03 1865.5,1160.5C 1869.24,1151.03 1872.4,1141.36 1875,1131.5C 1879.72,1124.01 1882.89,1115.84 1884.5,1107C 1908.37,1049.85 1938.87,996.688 1976,947.5C 2091.9,802.295 2242.06,717.461 2426.5,693C 2464.43,689.695 2502.43,688.695 2540.5,690C 2572.33,692.628 2603.99,696.628 2635.5,702C 2660.08,707.579 2684.41,713.913 2708.5,721C 2874.55,777.57 3001.21,881.737 3088.5,1033.5 Z"/></g>
<g><path style="opacity:1" fill="#c0c0c0" d="M 2193.5,1181.5 C 2209.68,1180.29 2226.02,1180.45 2242.5,1182C 2243.74,1182.23 2244.74,1182.73 2245.5,1183.5C 2228.2,1182.07 2210.87,1181.41 2193.5,1181.5 Z"/></g>
<g><path style="opacity:1" fill="#000000" d="M 2193.5,1181.5 C 2210.87,1181.41 2228.2,1182.07 2245.5,1183.5C 2249.43,1184.36 2253.43,1184.69 2257.5,1184.5C 2262.61,1186.04 2267.94,1187.04 2273.5,1187.5C 2371.45,1208.29 2446.61,1261.29 2499,1346.5C 2515.6,1375.36 2527.44,1406.03 2534.5,1438.5C 2534.41,1441.15 2535.08,1443.49 2536.5,1445.5C 2539.28,1456.3 2540.95,1467.3 2541.5,1478.5C 2542.69,1499.84 2542.69,1521.17 2541.5,1542.5C 2530.45,1647.42 2481.45,1729.92 2394.5,1790C 2355.24,1815.15 2312.57,1831.98 2266.5,1840.5C 2257.99,1841.2 2249.66,1842.2 2241.5,1843.5C 2240.5,1843.5 2239.5,1843.5 2238.5,1843.5C 2220.85,1844.38 2203.18,1844.71 2185.5,1844.5C 2070.43,1831.5 1982.93,1775.83 1923,1677.5C 1910.9,1654.9 1900.9,1631.23 1893,1606.5C 1892.51,1604.87 1892.34,1603.2 1892.5,1601.5C 1892.74,1599.1 1892.07,1597.1 1890.5,1595.5C 1885.01,1573.88 1881.68,1551.88 1880.5,1529.5C 1881.03,1511.16 1881.69,1492.83 1882.5,1474.5C 1883.32,1471.24 1883.66,1467.9 1883.5,1464.5C 1884.89,1460.67 1886.06,1456.67 1887,1452.5C 1887.5,1449.85 1887.66,1447.19 1887.5,1444.5C 1888.66,1441.73 1889.32,1438.73 1889.5,1435.5C 1890.92,1433.49 1891.59,1431.15 1891.5,1428.5C 1891.37,1426.71 1891.7,1425.04 1892.5,1423.5C 1894.28,1420.5 1895.28,1417.16 1895.5,1413.5C 1895.33,1412.51 1895.66,1411.84 1896.5,1411.5C 1898.61,1407.5 1899.94,1403.16 1900.5,1398.5C 1932.97,1314.87 1989.3,1253.04 2069.5,1213C 2093.72,1202.53 2118.72,1194.36 2144.5,1188.5C 2149.7,1187.86 2154.7,1186.86 2159.5,1185.5C 2170.85,1183.5 2182.19,1182.17 2193.5,1181.5 Z"/></g>
<g><path style="opacity:1" fill="#000000" d="M 1359.5,1401.5 C 1359.53,1404.92 1360.53,1407.92 1362.5,1410.5C 1363.46,1412.3 1364.12,1414.3 1364.5,1416.5C 1364.93,1420.43 1365.93,1424.09 1367.5,1427.5C 1367.26,1429.9 1367.93,1431.9 1369.5,1433.5C 1370.34,1435.38 1370.67,1437.38 1370.5,1439.5C 1370.57,1442.43 1371.23,1445.09 1372.5,1447.5C 1372.5,1447.83 1372.5,1448.17 1372.5,1448.5C 1372.42,1451.78 1373.09,1454.78 1374.5,1457.5C 1374.5,1458.17 1374.5,1458.83 1374.5,1459.5C 1374.54,1463.73 1375.21,1467.73 1376.5,1471.5C 1377.48,1474.29 1377.81,1477.29 1377.5,1480.5C 1378.73,1501.5 1378.73,1522.5 1377.5,1543.5C 1377.81,1547.37 1377.48,1551.04 1376.5,1554.5C 1375.2,1558.94 1374.53,1563.61 1374.5,1568.5C 1373.31,1571.95 1372.65,1575.61 1372.5,1579.5C 1371.34,1582.27 1370.68,1585.27 1370.5,1588.5C 1369.7,1592.56 1368.7,1596.56 1367.5,1600.5C 1365.93,1603.91 1364.93,1607.57 1364.5,1611.5C 1363.26,1613.21 1362.59,1615.21 1362.5,1617.5C 1360.93,1620.22 1359.93,1623.22 1359.5,1626.5C 1354.78,1639.09 1349.28,1651.43 1343,1663.5C 1342.51,1665.13 1342.34,1666.8 1342.5,1668.5C 1337.27,1673.94 1333.27,1680.28 1330.5,1687.5C 1326.59,1692.99 1322.92,1698.65 1319.5,1704.5C 1281.43,1757.23 1232.43,1796.23 1172.5,1821.5C 1164.02,1824.33 1155.68,1827.33 1147.5,1830.5C 1146.39,1830.56 1145.39,1830.89 1144.5,1831.5C 1139.84,1832.06 1135.5,1833.39 1131.5,1835.5C 1131.17,1835.5 1130.83,1835.5 1130.5,1835.5C 1126.2,1835.75 1122.2,1836.75 1118.5,1838.5C 1117.83,1838.5 1117.17,1838.5 1116.5,1838.5C 1103.72,1840.61 1091.05,1842.61 1078.5,1844.5C 1077.83,1844.5 1077.17,1844.5 1076.5,1844.5C 1058.52,1845.37 1040.52,1845.7 1022.5,1845.5C 928.349,1836.34 850.849,1795.68 790,1723.5C 720.444,1632.71 700.11,1531.71 729,1420.5C 765.064,1310.19 837.897,1236.02 947.5,1198C 1054.86,1167.43 1154.19,1184.1 1245.5,1248C 1298.62,1287.95 1336.62,1339.12 1359.5,1401.5 Z"/></g>
<g><path style="opacity:1" fill="#b6b6b6" d="M 2257.5,1184.5 C 2263.19,1184.24 2268.53,1185.24 2273.5,1187.5C 2267.94,1187.04 2262.61,1186.04 2257.5,1184.5 Z"/></g>
<g><path style="opacity:1" fill="#a9a9a9" d="M 2159.5,1185.5 C 2154.7,1186.86 2149.7,1187.86 2144.5,1188.5C 2149.15,1186.37 2154.15,1185.37 2159.5,1185.5 Z"/></g>
<g><path style="opacity:0.997" fill="#eaeaea" d="M 1640.5,1321.5 C 1639.42,1321.54 1638.42,1321.87 1637.5,1322.5C 1636.29,1482.91 1636.29,1636.08 1637.5,1782C 1636.67,1816.76 1636.17,1851.6 1636,1886.5C 1633.38,1886.7 1630.55,1886.7 1627.5,1886.5C 1629.16,1852.15 1630.16,1817.65 1630.5,1783C 1629.6,1633.88 1629.27,1477.71 1629.5,1314.5C 1629.97,1311.53 1631.63,1310.36 1634.5,1311C 1636.73,1314.39 1638.73,1317.89 1640.5,1321.5 Z"/></g>
<g><path style="opacity:0.998" fill="#f0f0f0" d="M 1629.5,1314.5 C 1629.27,1477.71 1629.6,1633.88 1630.5,1783C 1630.16,1817.65 1629.16,1852.15 1627.5,1886.5C 1624.78,1887.91 1621.78,1888.58 1618.5,1888.5C 1619.83,1887.83 1621.17,1887.17 1622.5,1886.5C 1623.82,1886.67 1624.99,1886.34 1626,1885.5C 1626.17,1696.13 1626.67,1506.79 1627.5,1317.5C 1627.43,1315.97 1628.09,1314.97 1629.5,1314.5 Z"/></g>
<g><path style="opacity:0.998" fill="#f6f6f6" d="M 1627.5,1317.5 C 1626.67,1506.79 1626.17,1696.13 1626,1885.5C 1624.99,1886.34 1623.82,1886.67 1622.5,1886.5C 1622.5,1699.5 1622.5,1512.5 1622.5,1325.5C 1623.38,1322.3 1625.05,1319.63 1627.5,1317.5 Z"/></g>
<g><path style="opacity:0.996" fill="#e3e3e3" d="M 1640.5,1321.5 C 1779.1,1544.38 1917.43,1767.38 2055.5,1990.5C 2055.29,1991.09 2054.96,1991.59 2054.5,1992C 2041.49,1992.17 2028.49,1992.67 2015.5,1993.5C 1889.73,2197.4 1763.73,2401.06 1637.5,2604.5C 1637.63,2603.76 1637.46,2603.09 1637,2602.5C 1636.33,2603.83 1635.67,2603.83 1635,2602.5C 1634.3,2491.74 1634.46,2386.57 1635.5,2287C 1634.67,2241.9 1634.17,2196.74 1634,2151.5C 1631.49,2151.68 1628.99,2151.68 1626.5,2151.5C 1624.06,2150.69 1621.72,2149.69 1619.5,2148.5C 1496.56,2096.53 1373.89,2043.7 1251.5,1990C 1240.15,1989.83 1228.82,1989.33 1217.5,1988.5C 1351.24,1954.98 1484.91,1921.65 1618.5,1888.5C 1621.78,1888.58 1624.78,1887.91 1627.5,1886.5C 1630.55,1886.7 1633.38,1886.7 1636,1886.5C 1636.17,1851.6 1636.67,1816.76 1637.5,1782C 1636.29,1636.08 1636.29,1482.91 1637.5,1322.5C 1638.42,1321.87 1639.42,1321.54 1640.5,1321.5 Z"/></g>
<g><path style="opacity:0.988" fill="#fefefe" d="M 1622.5,1325.5 C 1622.5,1512.5 1622.5,1699.5 1622.5,1886.5C 1621.17,1887.17 1619.83,1887.83 1618.5,1888.5C 1484.91,1921.65 1351.24,1954.98 1217.5,1988.5C 1228.82,1989.33 1240.15,1989.83 1251.5,1990C 1373.89,2043.7 1496.56,2096.53 1619.5,2148.5C 1619.78,2149.29 1620.28,2149.96 1621,2150.5C 1621.17,2168.41 1621.67,2186.24 1622.5,2204C 1622.76,2318.65 1622.43,2451.82 1621.5,2603.5C 1608.36,2583.23 1595.19,2562.9 1582,2542.5C 1469.84,2358.83 1356.67,2175.83 1242.5,1993.5C 1231.85,1992.5 1221.19,1992.17 1210.5,1992.5C 1210.37,1990.35 1210.87,1988.35 1212,1986.5C 1228.5,1960.83 1244.5,1934.83 1260,1908.5C 1380.83,1714.16 1501.67,1519.83 1622.5,1325.5 Z"/></g>
<g><path style="opacity:1" fill="#e2e2e2" d="M 1422.5,1291.5 C 1424.13,1298.59 1424.96,1305.92 1425,1313.5C 1425.77,1342.18 1425.44,1370.85 1424,1399.5C 1423.82,1402.69 1423.32,1405.69 1422.5,1408.5C 1425.01,1369.49 1425.01,1330.49 1422.5,1291.5 Z"/></g>
<g><path style="opacity:1" fill="#535353" d="M 1900.5,1398.5 C 1899.94,1403.16 1898.61,1407.5 1896.5,1411.5C 1897.06,1406.84 1898.39,1402.5 1900.5,1398.5 Z"/></g>
<g><path style="opacity:1" fill="#5e5e5e" d="M 1359.5,1401.5 C 1361.07,1404.22 1362.07,1407.22 1362.5,1410.5C 1360.53,1407.92 1359.53,1404.92 1359.5,1401.5 Z"/></g>
<g><path style="opacity:1" fill="#5f5f5f" d="M 1895.5,1413.5 C 1895.28,1417.16 1894.28,1420.5 1892.5,1423.5C 1892.72,1419.84 1893.72,1416.5 1895.5,1413.5 Z"/></g>
<g><path style="opacity:1" fill="#6d6d6d" d="M 1364.5,1416.5 C 1366.48,1419.8 1367.48,1423.47 1367.5,1427.5C 1365.93,1424.09 1364.93,1420.43 1364.5,1416.5 Z"/></g>
<g><path style="opacity:1" fill="#7d7d7d" d="M 1367.5,1427.5 C 1369.07,1429.1 1369.74,1431.1 1369.5,1433.5C 1367.93,1431.9 1367.26,1429.9 1367.5,1427.5 Z"/></g>
<g><path style="opacity:1" fill="#545454" d="M 1891.5,1428.5 C 1891.59,1431.15 1890.92,1433.49 1889.5,1435.5C 1889.17,1432.77 1889.84,1430.44 1891.5,1428.5 Z"/></g>
<g><path style="opacity:1" fill="#6f6f6f" d="M 1889.5,1435.5 C 1889.32,1438.73 1888.66,1441.73 1887.5,1444.5C 1887.22,1441.17 1887.88,1438.17 1889.5,1435.5 Z"/></g>
<g><path style="opacity:1" fill="#595959" d="M 2534.5,1438.5 C 2535.92,1440.51 2536.59,1442.85 2536.5,1445.5C 2535.08,1443.49 2534.41,1441.15 2534.5,1438.5 Z"/></g>
<g><path style="opacity:1" fill="#7a7a7a" d="M 1370.5,1439.5 C 1372.04,1441.84 1372.71,1444.5 1372.5,1447.5C 1371.23,1445.09 1370.57,1442.43 1370.5,1439.5 Z"/></g>
<g><path style="opacity:1" fill="#8c8c8c" d="M 1372.5,1448.5 C 1374.12,1451.17 1374.78,1454.17 1374.5,1457.5C 1373.09,1454.78 1372.42,1451.78 1372.5,1448.5 Z"/></g>
<g><path style="opacity:1" fill="#484848" d="M 1887.5,1444.5 C 1887.66,1447.19 1887.5,1449.85 1887,1452.5C 1886.06,1456.67 1884.89,1460.67 1883.5,1464.5C 1884.01,1457.54 1885.34,1450.87 1887.5,1444.5 Z"/></g>
<g><path style="opacity:1" fill="#858585" d="M 1374.5,1459.5 C 1376.14,1463.21 1376.8,1467.21 1376.5,1471.5C 1375.21,1467.73 1374.54,1463.73 1374.5,1459.5 Z"/></g>
<g><path style="opacity:1" fill="#4f4f4f" d="M 1882.5,1474.5 C 1881.69,1492.83 1881.03,1511.16 1880.5,1529.5C 1878.95,1511.1 1879.61,1492.76 1882.5,1474.5 Z"/></g>
<g><path style="opacity:1" fill="#545454" d="M 2541.5,1478.5 C 2543,1490.13 2543.66,1501.96 2543.5,1514C 2543.33,1521.83 2543.17,1529.67 2543,1537.5C 2542.8,1539.38 2542.3,1541.05 2541.5,1542.5C 2542.69,1521.17 2542.69,1499.84 2541.5,1478.5 Z"/></g>
<g><path style="opacity:1" fill="#6f6f6f" d="M 1377.5,1480.5 C 1379.04,1490.79 1379.7,1501.29 1379.5,1512C 1379.7,1522.71 1379.04,1533.21 1377.5,1543.5C 1378.73,1522.5 1378.73,1501.5 1377.5,1480.5 Z"/></g>
<g><path style="opacity:1" fill="#676767" d="M 1376.5,1554.5 C 1376.64,1559.41 1375.97,1564.08 1374.5,1568.5C 1374.53,1563.61 1375.2,1558.94 1376.5,1554.5 Z"/></g>
<g><path style="opacity:1" fill="#878787" d="M 1374.5,1568.5 C 1374.88,1572.49 1374.22,1576.16 1372.5,1579.5C 1372.65,1575.61 1373.31,1571.95 1374.5,1568.5 Z"/></g>
<g><path style="opacity:1" fill="#6f6f6f" d="M 1372.5,1579.5 C 1372.78,1582.83 1372.12,1585.83 1370.5,1588.5C 1370.68,1585.27 1371.34,1582.27 1372.5,1579.5 Z"/></g>
<g><path style="opacity:1" fill="#575757" d="M 1890.5,1595.5 C 1892.07,1597.1 1892.74,1599.1 1892.5,1601.5C 1890.93,1599.9 1890.26,1597.9 1890.5,1595.5 Z"/></g>
<g><path style="opacity:1" fill="#747474" d="M 1367.5,1600.5 C 1367.48,1604.53 1366.48,1608.2 1364.5,1611.5C 1364.93,1607.57 1365.93,1603.91 1367.5,1600.5 Z"/></g>
<g><path style="opacity:1" fill="#7e7e7e" d="M 1362.5,1617.5 C 1362.33,1619.86 1361.99,1622.19 1361.5,1624.5C 1360.83,1625.17 1360.17,1625.83 1359.5,1626.5C 1359.93,1623.22 1360.93,1620.22 1362.5,1617.5 Z"/></g>
<g><path style="opacity:0.718" fill="#8b8b8b" d="M 1342.5,1668.5 C 1340.24,1674.31 1337.24,1679.64 1333.5,1684.5C 1332.73,1685.69 1331.73,1686.69 1330.5,1687.5C 1333.27,1680.28 1337.27,1673.94 1342.5,1668.5 Z"/></g>
<g><path style="opacity:0.6" fill="#c0c0c0" d="M 1333.5,1684.5 C 1330.66,1691.01 1327,1697.01 1322.5,1702.5C 1321.5,1703.17 1320.5,1703.83 1319.5,1704.5C 1322.92,1698.65 1326.59,1692.99 1330.5,1687.5C 1331.73,1686.69 1332.73,1685.69 1333.5,1684.5 Z"/></g>
<g><path style="opacity:1" fill="#afafaf" d="M 1172.5,1821.5 C 1171.94,1822.79 1170.94,1823.62 1169.5,1824C 1162.29,1826.68 1154.96,1828.85 1147.5,1830.5C 1155.68,1827.33 1164.02,1824.33 1172.5,1821.5 Z"/></g>
<g><path style="opacity:1" fill="#b2b2b2" d="M 1144.5,1831.5 C 1140.5,1833.61 1136.16,1834.94 1131.5,1835.5C 1135.5,1833.39 1139.84,1832.06 1144.5,1831.5 Z"/></g>
<g><path style="opacity:1" fill="#9a9a9a" d="M 1130.5,1835.5 C 1126.8,1837.25 1122.8,1838.25 1118.5,1838.5C 1122.2,1836.75 1126.2,1835.75 1130.5,1835.5 Z"/></g>
<g><path style="opacity:1" fill="#ababab" d="M 1116.5,1838.5 C 1116.39,1839.12 1116.06,1839.62 1115.5,1840C 1103.26,1842.37 1090.93,1843.87 1078.5,1844.5C 1091.05,1842.61 1103.72,1840.61 1116.5,1838.5 Z"/></g>
<g><path style="opacity:1" fill="#b6b6b6" d="M 2266.5,1840.5 C 2258.45,1842.7 2250.11,1843.7 2241.5,1843.5C 2249.66,1842.2 2257.99,1841.2 2266.5,1840.5 Z"/></g>
<g><path style="opacity:1" fill="#d3d3d3" d="M 2238.5,1843.5 C 2237.39,1844.29 2236.06,1844.79 2234.5,1845C 2217.99,1845.83 2201.66,1845.66 2185.5,1844.5C 2203.18,1844.71 2220.85,1844.38 2238.5,1843.5 Z"/></g>
<g><path style="opacity:1" fill="#bababa" d="M 1076.5,1844.5 C 1075.05,1845.3 1073.38,1845.8 1071.5,1846C 1054.99,1846.83 1038.66,1846.66 1022.5,1845.5C 1040.52,1845.7 1058.52,1845.37 1076.5,1844.5 Z"/></g>
<g><path style="opacity:0.998" fill="#f4f4f4" d="M 1619.5,2148.5 C 1621.72,2149.69 1624.06,2150.69 1626.5,2151.5C 1626.78,2152.29 1627.28,2152.96 1628,2153.5C 1628.83,2307.33 1628.67,2461 1627.5,2614.5C 1625.23,2610.97 1623.23,2607.3 1621.5,2603.5C 1622.43,2451.82 1622.76,2318.65 1622.5,2204C 1621.67,2186.24 1621.17,2168.41 1621,2150.5C 1620.28,2149.96 1619.78,2149.29 1619.5,2148.5 Z"/></g>
<g><path style="opacity:0.994" fill="#eaeaea" d="M 1637.5,2604.5 C 1635.95,2607.94 1634.11,2611.27 1632,2614.5C 1630.38,2615.8 1628.88,2615.8 1627.5,2614.5C 1628.67,2461 1628.83,2307.33 1628,2153.5C 1627.28,2152.96 1626.78,2152.29 1626.5,2151.5C 1628.99,2151.68 1631.49,2151.68 1634,2151.5C 1634.17,2196.74 1634.67,2241.9 1635.5,2287C 1634.46,2386.57 1634.3,2491.74 1635,2602.5C 1635.67,2603.83 1636.33,2603.83 1637,2602.5C 1637.46,2603.09 1637.63,2603.76 1637.5,2604.5 Z"/></g>
</svg>
